<svg width="10" height="17" viewBox="0 0 10 17" fill="none" xmlns="http://www.w3.org/2000/svg">
    <path d="M9.16512 14.851L3.10112 8.999L9.16712 3.149C9.2916 3.03672 9.39223 2.90055 9.46301 2.7486C9.53379 2.59664 9.57328 2.432 9.57914 2.26446C9.585 2.09693 9.5571 1.92994 9.4971 1.77341C9.4371 1.61688 9.34623 1.47402 9.2299 1.35332C9.11356 1.23262 8.97414 1.13656 8.81992 1.07085C8.66571 1.00513 8.49985 0.971107 8.33221 0.970797C8.16458 0.970487 7.9986 1.0039 7.84414 1.06904C7.68968 1.13419 7.5499 1.22973 7.43312 1.35L0.433123 8.098C0.311513 8.21424 0.214721 8.35392 0.148593 8.5086C0.082464 8.66329 0.0483704 8.82977 0.0483704 8.998C0.0483704 9.16623 0.082464 9.33271 0.148593 9.48739C0.214721 9.64208 0.311513 9.78176 0.433123 9.898L7.43312 16.651C7.55131 16.7649 7.69078 16.8544 7.84357 16.9145C7.99636 16.9745 8.15948 17.0038 8.3236 17.0008C8.48773 16.9978 8.64966 16.9625 8.80014 16.8969C8.95062 16.8313 9.0867 16.7367 9.20062 16.6185C9.31455 16.5003 9.40407 16.3608 9.46409 16.208C9.52411 16.0553 9.55345 15.8921 9.55044 15.728C9.54742 15.5639 9.5121 15.402 9.4465 15.2515C9.38091 15.101 9.28631 14.9649 9.16812 14.851H9.16512Z" fill="white"/>
</svg>
