<svg width="18" height="18" viewBox="0 0 18 18" fill="none" xmlns="http://www.w3.org/2000/svg">
    <path d="M16.752 15.249L12.806 11.304C13.7584 9.97504 14.176 8.33645 13.9759 6.71376C13.7757 5.09108 12.9725 3.60304 11.7258 2.54528C10.4791 1.48751 8.88015 0.937406 7.24654 1.00426C5.61293 1.07112 4.06424 1.75003 2.90813 2.90613C1.75203 4.06224 1.07311 5.61093 1.00626 7.24454C0.939405 8.87815 1.4895 10.4771 2.54727 11.7238C3.60504 12.9705 5.09308 13.7737 6.71576 13.9739C8.33845 14.174 9.97703 13.7564 11.306 12.804L15.252 16.75C15.4566 16.9173 15.7161 17.0025 15.98 16.9893C16.2439 16.9761 16.4936 16.8653 16.6804 16.6784C16.8673 16.4916 16.9781 16.2419 16.9913 15.978C17.0045 15.7141 16.9193 15.4546 16.752 15.25V15.249ZM2.956 7.526C2.95581 6.62234 3.22358 5.73891 3.72546 4.98744C4.22735 4.23596 4.9408 3.65018 5.7756 3.30418C6.6104 2.95818 7.52905 2.8675 8.41539 3.0436C9.30173 3.2197 10.1159 3.65468 10.7551 4.29353C11.3942 4.93237 11.8295 5.7464 12.006 6.63266C12.1825 7.51892 12.0922 8.43761 11.7466 9.27256C11.401 10.1075 10.8155 10.8212 10.0642 11.3234C9.31298 11.8256 8.42967 12.0938 7.526 12.094C6.92599 12.0941 6.33183 11.9761 5.77745 11.7466C5.22306 11.5171 4.7193 11.1807 4.29494 10.7565C3.87058 10.3323 3.53392 9.8287 3.30418 9.27441C3.07445 8.72012 2.95613 8.12601 2.956 7.526Z" fill="#B4B3BE"/>
</svg>
