<svg width="21" height="18" viewBox="0 0 21 18" fill="none" xmlns="http://www.w3.org/2000/svg">
<path d="M2.74439 17.1924C2.32245 17.191 1.91822 17.0178 1.62006 16.7107C1.3219 16.4036 1.15406 15.9875 1.15324 15.5535V10.9413C1.52477 11.1242 1.93137 11.2192 2.34322 11.2193H9.09858C9.20461 11.5857 9.42284 11.9071 9.72078 12.1357C10.0187 12.3642 10.3804 12.4877 10.7521 12.4877C11.1237 12.4877 11.4854 12.3642 11.7834 12.1357C12.0813 11.9071 12.2995 11.5857 12.4056 11.2193H19.1609C19.5733 11.2186 19.9802 11.1229 20.352 10.9392V15.5503C20.3509 15.9842 20.1829 16.4001 19.8848 16.7072C19.5867 17.0142 19.1827 17.1875 18.7608 17.1892L2.74439 17.1924ZM9.76892 10.6623V10.2058C9.76892 10.0734 9.79426 9.94231 9.84352 9.82C9.89277 9.69768 9.96496 9.58654 10.056 9.49292C10.147 9.39931 10.255 9.32505 10.3739 9.27438C10.4928 9.22372 10.6203 9.19764 10.749 9.19764C10.8777 9.19764 11.0051 9.22372 11.124 9.27438C11.2429 9.32505 11.351 9.39931 11.442 9.49292C11.533 9.58654 11.6052 9.69768 11.6544 9.82C11.7037 9.94231 11.729 10.0734 11.729 10.2058V10.6623C11.729 10.7947 11.7037 10.9258 11.6544 11.0481C11.6052 11.1704 11.533 11.2816 11.442 11.3752C11.351 11.4688 11.2429 11.5431 11.124 11.5937C11.0051 11.6444 10.8777 11.6705 10.749 11.6705C10.6203 11.6705 10.4928 11.6444 10.3739 11.5937C10.255 11.5431 10.147 11.4688 10.056 11.3752C9.96496 11.2816 9.89277 11.1704 9.84352 11.0481C9.79426 10.9258 9.76892 10.7947 9.76892 10.6623ZM12.4773 9.99412C12.4571 9.53822 12.2669 9.10786 11.9462 8.79245C11.9379 8.78283 11.9254 8.77641 11.9161 8.76679C11.8481 8.70075 11.7751 8.64034 11.6978 8.58611C11.6677 8.56687 11.6365 8.55404 11.6074 8.53693C11.5447 8.49624 11.479 8.4605 11.411 8.43002C11.3552 8.40867 11.2983 8.39047 11.2405 8.3755C11.1907 8.35946 11.1439 8.34022 11.0919 8.32846C10.9786 8.30529 10.8634 8.29348 10.7479 8.29318C10.6324 8.29261 10.5171 8.30443 10.4039 8.32846C10.3543 8.34139 10.3054 8.35709 10.2574 8.3755C10.1992 8.3926 10.1399 8.40543 10.0849 8.42895C10.0173 8.46048 9.95175 8.49618 9.88843 8.53586C9.85829 8.55297 9.82711 8.5658 9.79905 8.58504C9.72123 8.63893 9.64788 8.69936 9.57977 8.76572C9.56937 8.77534 9.55794 8.78176 9.54859 8.79138C9.22842 9.10649 9.03891 9.5366 9.01959 9.99198H2.34322C1.92103 9.99198 1.51611 9.8196 1.21738 9.51271C0.918651 9.20581 0.750551 8.78949 0.75 8.35519L0.75 4.5759C0.76009 4.13212 0.940771 3.71054 1.25246 3.40354C1.56414 3.09654 1.98142 2.92914 2.41286 2.93803H6.23015C6.34436 2.20722 6.70753 1.54203 7.25474 1.06138C7.80195 0.580737 8.49751 0.315981 9.21705 0.314453L12.2788 0.314453C12.9985 0.315728 13.6943 0.580369 14.2417 1.06104C14.7892 1.54171 15.1525 2.20704 15.2667 2.93803H19.0871C19.5186 2.92914 19.9359 3.09654 20.2475 3.40354C20.5592 3.71054 20.7399 4.13212 20.75 4.5759V8.35625C20.7497 8.79056 20.5819 9.20699 20.2834 9.51409C19.9848 9.82119 19.58 9.99384 19.1578 9.99412H12.4773ZM7.76309 2.93803H13.7348C13.6345 2.622 13.44 2.34652 13.1788 2.15075C12.9175 1.95499 12.603 1.84889 12.2798 1.84755H9.21705C8.89394 1.84863 8.57941 1.95464 8.31832 2.15046C8.05723 2.34628 7.86292 2.62191 7.76309 2.93803Z" fill="#707793"/>
</svg>
