<svg width="20" height="21" viewBox="0 0 20 21" fill="none" xmlns="http://www.w3.org/2000/svg">
<path d="M2.06731 20.9398C1.58597 20.9342 1.12597 20.7346 0.786161 20.3838C0.446349 20.0331 0.25384 19.5592 0.25 19.0641L0.25 18.9541H16.2493V19.0641C16.2551 19.306 16.2142 19.5467 16.1291 19.7723C16.0441 19.9979 15.9164 20.204 15.7535 20.3786C15.5906 20.5532 15.3958 20.693 15.1802 20.7897C14.9645 20.8865 14.7324 20.9384 14.4972 20.9425L2.06731 20.9398ZM0.25 16.8467V11.8886C0.252515 11.3937 0.444816 10.9198 0.785109 10.5699C1.1254 10.22 1.58619 10.0224 2.06731 10.02H14.5016C14.736 10.0234 14.9674 10.0745 15.1824 10.1705C15.3975 10.2665 15.5919 10.4054 15.7545 10.5791C15.917 10.7529 16.0444 10.9581 16.1294 11.1829C16.2143 11.4077 16.2551 11.6475 16.2493 11.8886V16.8458L0.25 16.8467ZM4.59764 15.1588C4.94875 15.1588 5.28547 15.0153 5.53374 14.7599C5.78202 14.5045 5.92149 14.1581 5.92149 13.797C5.92149 13.4358 5.78202 13.0894 5.53374 12.834C5.28547 12.5786 4.94875 12.4351 4.59764 12.4351C4.26328 12.4356 3.94263 12.5719 3.7055 12.8144C3.46704 12.5718 3.14529 12.4355 2.80989 12.4351C2.46488 12.4442 2.13698 12.5916 1.89609 12.8458C1.6552 13.1001 1.52039 13.441 1.52039 13.7961C1.52039 14.1511 1.6552 14.4921 1.89609 14.7463C2.13698 15.0005 2.46488 15.1479 2.80989 15.157C3.14504 15.1563 3.46633 15.0193 3.70376 14.776C3.82094 14.8971 3.96022 14.9933 4.11361 15.059C4.267 15.1247 4.43148 15.1586 4.59764 15.1588ZM17.9971 12.0058L18.4962 11.4932C18.5878 11.3998 18.6419 11.2743 18.6475 11.1417C18.6484 11.0105 18.599 10.8842 18.5101 10.7902L9.71655 1.52251C9.67332 1.47655 9.62138 1.44021 9.56395 1.41574C9.50651 1.39128 9.4448 1.37921 9.38265 1.38029C9.32009 1.38133 9.25836 1.39515 9.20103 1.42095C9.14371 1.44675 9.09195 1.48401 9.04875 1.53056L6.31843 4.41972L10.7895 9.16044H7.89141L4.87067 5.95017L4.23417 6.59956C4.14495 6.69601 4.09542 6.82421 4.09592 6.95735C4.09567 7.09257 4.14504 7.22291 4.23417 7.3223L5.95323 9.15776H4.11244L3.31421 8.2928C2.98073 7.93353 2.79465 7.45589 2.79465 6.95914C2.79465 6.46239 2.98073 5.98474 3.31421 5.62548L8.12792 0.549324C8.29019 0.375632 8.4849 0.237445 8.70036 0.14305C8.91582 0.0486563 9.14759 0 9.38178 0C9.61596 0 9.84774 0.0486563 10.0632 0.14305C10.2787 0.237445 10.4734 0.375632 10.6356 0.549324L19.4266 9.81788C19.7585 10.1742 19.9429 10.6492 19.9408 11.1427C19.9387 11.6362 19.7502 12.1096 19.4153 12.4628L17.9953 13.9459L17.9971 12.0058Z" fill="#707793"/>
</svg>
