<svg width="17" height="20" viewBox="0 0 17 20" fill="none" xmlns="http://www.w3.org/2000/svg">
<path d="M10.5932 19.9778L2.48087 16.7347C2.43357 16.7157 2.39194 16.6844 2.36018 16.6436C2.32842 16.6029 2.30764 16.5543 2.29994 16.5027C2.29224 16.4511 2.29788 16.3984 2.3163 16.3497C2.33472 16.3011 2.36527 16.2583 2.40488 16.2256L9.19092 10.6192C9.23022 10.5865 9.27725 10.565 9.32722 10.557C9.3772 10.549 9.42834 10.5548 9.47544 10.5738C9.52271 10.5927 9.56432 10.6241 9.59611 10.6648C9.6279 10.7055 9.64875 10.754 9.65658 10.8056L9.98704 13.0134C10.1638 12.9443 10.3484 12.8689 10.5349 12.7825C11.6939 12.2417 12.7337 11.4639 13.5912 10.4965C14.0666 9.96736 14.4945 9.39512 14.8698 8.78678C15.1475 8.34976 15.3859 7.88762 15.582 7.40608C15.6065 7.34093 15.6525 7.28676 15.712 7.25313C15.7715 7.2195 15.8406 7.20857 15.9072 7.22226C15.9738 7.23596 16.0335 7.27341 16.0759 7.32799C16.1182 7.38258 16.1404 7.4508 16.1387 7.52061C16.1179 8.0738 16.0481 8.62388 15.9301 9.164C15.6708 10.4799 15.2122 11.7457 14.5712 12.9152C14.1998 13.5884 13.7723 14.227 13.2935 14.824C12.8156 15.4173 12.2829 15.9616 11.703 16.4492C11.369 16.7219 11.0915 16.9428 10.8291 17.1319C10.7602 17.1819 10.6895 17.2273 10.6224 17.2718L10.9758 19.6578C10.9835 19.7094 10.978 19.7621 10.9597 19.8107C10.9413 19.8593 10.9109 19.9021 10.8714 19.9348C10.832 19.9675 10.7848 19.9889 10.7347 19.9969C10.6847 20.005 10.6334 19.9993 10.5861 19.9805L10.5932 19.9778ZM0.822353 12.7744C0.756273 12.7604 0.696994 12.7232 0.654735 12.6691C0.612476 12.615 0.589883 12.5474 0.59085 12.478C0.611898 11.9249 0.681694 11.3748 0.79938 10.8346C1.05796 9.51826 1.51658 8.25202 2.15836 7.0825C2.52941 6.41146 2.95694 5.77518 3.43604 5.18097C3.91352 4.58728 4.44621 4.04296 5.02652 3.55576C5.36052 3.28308 5.63797 3.0622 5.89951 2.87223C5.96932 2.82224 6.03912 2.77679 6.10716 2.73225L5.74754 0.341712C5.73987 0.290263 5.74551 0.237643 5.76389 0.18915C5.78228 0.140656 5.81275 0.097999 5.85225 0.0654721C5.89176 0.0329452 5.93889 0.0116959 5.98891 0.00386293C6.03894 -0.00397009 6.09008 0.00188954 6.1372 0.0208521L14.2495 3.26308C14.2968 3.28185 14.3385 3.31313 14.3703 3.35376C14.4021 3.3944 14.4229 3.44294 14.4306 3.49449C14.4383 3.54605 14.4326 3.59878 14.4142 3.64736C14.3957 3.69594 14.3652 3.73866 14.3255 3.77119L7.53947 9.37851C7.49994 9.41096 7.45281 9.43217 7.4028 9.44C7.3528 9.44784 7.30167 9.44204 7.25452 9.42318C7.20738 9.40431 7.16588 9.37305 7.13417 9.33251C7.10246 9.29197 7.08165 9.24358 7.07382 9.19217L6.74247 6.98433C6.56575 7.05341 6.38108 7.12885 6.19464 7.21429C5.03562 7.75548 3.99574 8.53357 3.13827 9.50122C2.66293 10.0302 2.23528 10.6024 1.86058 11.211C1.58229 11.6481 1.3436 12.1105 1.14752 12.5926C1.13197 12.6328 1.10812 12.6691 1.0776 12.6989C1.04709 12.7287 1.01065 12.7513 0.970798 12.7653C0.942316 12.7752 0.912497 12.7804 0.882438 12.7807C0.86225 12.7807 0.842113 12.7786 0.822353 12.7744Z" fill="#707793"/>
</svg>
